<?xml version="1.0" encoding="utf-8"?>
<!-- Generator: Adobe Illustrator 26.5.0, SVG Export Plug-In . SVG Version: 6.00 Build 0)  -->
<svg version="1.1" id="Livello_1" xmlns="http://www.w3.org/2000/svg" xmlns:xlink="http://www.w3.org/1999/xlink" x="0px" y="0px"
	 viewBox="0 0 1080 1080" style="enable-background:new 0 0 1080 1080;" xml:space="preserve">
<style type="text/css">
	.st0{fill:#294A8D;}
	.st1{fill:#A24091;}
	.st2{fill:#E72A83;}
	.st3{fill:none;}
	.st4{font-family:'BalooBhai-Regular';}
	.st5{font-size:95.4913px;}
	.st6{clip-path:url(#SVGID_00000109708597876837916100000000600224718444426422_);fill:#294A8D;}
</style>
<path class="st0" d="M376.42,534.09c-20.91,0-37.92,16.16-37.92,36.01v148.86c0,19.86,17.01,36.02,37.92,36.02
	c20.91,0,37.92-16.16,37.92-36.02V570.1C414.34,550.24,397.33,534.09,376.42,534.09z"/>
<path class="st0" d="M640.83,534.09c-20.91,0-37.92,16.16-37.92,36.01v148.86c0,19.86,17.01,36.02,37.92,36.02
	c20.91,0,37.92-16.16,37.92-36.02V570.1C678.75,550.24,661.74,534.09,640.83,534.09z"/>
<path class="st1" d="M508.6,553.85c-20.91,0-37.92,16.71-37.92,37.25v153.99c0,20.54,17.01,37.25,37.92,37.25
	c20.91,0,37.92-16.71,37.92-37.25V591.1C546.52,570.56,529.51,553.85,508.6,553.85z"/>
<path class="st1" d="M705.2,517.9c6.84,8.6,10.61,17.8,10.61,27.36c0,47.85-92.75,86.64-207.17,86.64
	c-114.42,0-207.17-38.79-207.17-86.64c0-9.57,3.76-18.76,10.61-27.36c-31.8,17.4-50.73,39.13-50.73,62.72
	c0,57.11,110.71,103.41,247.29,103.41c136.57,0,247.29-46.3,247.29-103.41C755.93,557.03,737,535.3,705.2,517.9z"/>
<ellipse class="st2" cx="508.6" cy="476.43" rx="65.89" ry="62.58"/>
<g>
	<path class="st0" d="M377.8,413.04c-30.52,0-55.35,23.59-55.35,52.58c0,28.99,24.83,52.58,55.35,52.58
		c30.52,0,55.35-23.59,55.35-52.58C433.15,436.63,408.32,413.04,377.8,413.04z"/>
	<ellipse class="st0" cx="640.83" cy="465.62" rx="55.35" ry="52.58"/>
</g>
<rect x="323.31" y="233.33" class="st3" width="432.58" height="158.34"/>
<text transform="matrix(1.0528 0 0 1 323.3045 296.4523)"><tspan x="0" y="0" class="st0 st4 st5">SCHOOL </tspan><tspan x="0" y="79.95" class="st0 st4 st5">CARE</tspan></text>
<g>
	<defs>
		<path id="SVGID_1_" d="M705.2,517.9c6.84,8.6,10.61,17.8,10.61,27.36c0,47.85-95.36,86.82-207.17,86.64
			c-114.42-0.19-207.17-38.79-207.17-86.64c0-9.57,3.76-18.76,10.61-27.36c-31.8,17.4-50.73,39.13-50.73,62.72
			c0,57.11,110.71,103.41,247.29,103.41c136.57,0,247.29-46.3,247.29-103.41C755.93,557.03,737,535.3,705.2,517.9z"/>
	</defs>
	<clipPath id="SVGID_00000043427536809343521390000011913300487146115725_">
		<use xlink:href="#SVGID_1_"  style="overflow:visible;"/>
	</clipPath>
	<path style="clip-path:url(#SVGID_00000043427536809343521390000011913300487146115725_);fill:#294A8D;" d="M726.77,458.64
		c6.84,8.6-22.51,28.44-22.51,38c0,47.85-41.62,103.61-156.04,103.61c-114.42,0-207.17-38.79-207.17-86.64
		c0-9.57,3.76-18.76,10.61-27.36c-31.8,17.4-48.07,39.27-50.73,62.72c-8.77,77.35,140.91,119.72,277.3,112.98
		c96.02-4.75,195.05-55.58,171.54-107.83C740.02,532.43,758.56,476.04,726.77,458.64z"/>
</g>
</svg>
